<?xml version="1.0" encoding="utf-8"?>
<!-- Generator: Adobe Illustrator 25.4.1, SVG Export Plug-In . SVG Version: 6.00 Build 0)  -->
<svg version="1.1" id="Layer_1" xmlns="http://www.w3.org/2000/svg" xmlns:xlink="http://www.w3.org/1999/xlink" x="0px" y="0px"
	 viewBox="0 0 48 48" style="enable-background:new 0 0 48 48;" xml:space="preserve">
<style type="text/css">
	.st0{fill:#FFFFFF;}
</style>
<path class="st0" d="M22.4,31.7l5.6-5.6l5.6,5.6l2.2-2.2L30.1,24l5.6-5.5l-2.2-2.2L28,21.9l-5.6-5.6l-2.1,2.2l5.6,5.5l-5.6,5.5
	L22.4,31.7z M6,24l8.4-11.9c0.4-0.6,1-1.1,1.6-1.5s1.3-0.6,2-0.6h21c0.8,0,1.5,0.3,2.1,0.9S42,12.2,42,13v22c0,0.8-0.3,1.5-0.9,2.1
	S39.8,38,39,38H18c-0.7,0-1.4-0.2-2-0.6c-0.6-0.4-1.1-0.9-1.6-1.5L6,24z M9.8,24l7.7,11l0,0l0,0H39l0,0l0,0V13l0,0l0,0H17.5l0,0l0,0
	L9.8,24z M39,24V13l0,0l0,0l0,0l0,0v22l0,0l0,0l0,0l0,0V24z"/>
</svg>
