<?xml version="1.0" encoding="utf-8"?>
<!-- Generator: Adobe Illustrator 25.4.1, SVG Export Plug-In . SVG Version: 6.00 Build 0)  -->
<svg version="1.1" id="Layer_1" xmlns="http://www.w3.org/2000/svg" xmlns:xlink="http://www.w3.org/1999/xlink" x="0px" y="0px"
	 viewBox="0 0 48 48" style="enable-background:new 0 0 48 48;" xml:space="preserve">
<style type="text/css">
	.st0{fill:#E2E2E2;}
</style>
<path class="st0" d="M12.1,17.8h9.8v-2.5h-9.8V17.8z M26.5,34.8h10v-2.4h-10V34.8z M26.5,29.5h10V27h-10V29.5z M15.7,36.6h2.5v-4.4
	h4.4v-2.5h-4.4v-4.4h-2.5v4.4h-4.4v2.5h4.4V36.6z M28.3,21.4l3.1-3.1l3.1,3.1l1.8-1.8l-3-3l3-3.1l-1.8-1.8l-3.1,3.1l-3.1-3.1
	l-1.8,1.8l3,3.1l-3,3L28.3,21.4z M9,42c-0.8,0-1.5-0.3-2.1-0.9C6.3,40.5,6,39.8,6,39V9c0-0.8,0.3-1.5,0.9-2.1S8.2,6,9,6h30
	c0.8,0,1.5,0.3,2.1,0.9C41.7,7.5,42,8.2,42,9v30c0,0.8-0.3,1.5-0.9,2.1C40.5,41.7,39.8,42,39,42H9z M9,39h30l0,0l0,0V9l0,0l0,0H9
	l0,0l0,0V39L9,39L9,39z M9,39L9,39L9,39V9l0,0l0,0l0,0l0,0V39L9,39L9,39z"/>
</svg>
